<svg id="visual" viewBox="0 0 900 600" width="900" height="600" xmlns="http://www.w3.org/2000/svg" xmlns:xlink="http://www.w3.org/1999/xlink" version="1.1"><g transform="translate(431.460456759606 269.9993985529914)"><path d="M162 -276.9C198.9 -259.2 210.3 -193.6 235.6 -139.5C260.8 -85.3 299.9 -42.7 314.5 8.4C329.1 59.5 319.1 119 292 170C264.9 220.9 220.7 263.3 169.2 294.4C117.7 325.5 58.8 345.2 1.8 342.1C-55.2 338.9 -110.3 312.8 -149.9 274.8C-189.4 236.8 -213.4 186.9 -237.3 139.1C-261.2 91.3 -285.1 45.7 -284.1 0.6C-283.1 -44.5 -257.2 -89 -234 -138.1C-210.8 -187.1 -190.4 -240.8 -151.9 -257.6C-113.3 -274.4 -56.7 -254.4 2.9 -259.5C62.5 -264.5 125 -294.6 162 -276.9" fill="#EB0028"></path></g></svg>