<svg id="visual" viewBox="0 0 900 600" width="900" height="600" xmlns="http://www.w3.org/2000/svg" xmlns:xlink="http://www.w3.org/1999/xlink" version="1.1"><g transform="translate(444.311183910155 324.1529840041078)"><path d="M175.8 -290.7C226.6 -275.2 265.7 -225.6 286.6 -171.5C307.6 -117.3 310.3 -58.7 304.2 -3.5C298.2 51.7 283.3 103.3 251.1 137.8C218.8 172.3 169.2 189.7 124.4 202.9C79.7 216.1 39.8 225.3 -5.8 235.4C-51.5 245.5 -103 256.5 -140.2 239C-177.5 221.4 -200.5 175.2 -222.5 130.6C-244.6 86 -265.8 43 -281 -8.7C-296.1 -60.5 -305.2 -121 -279.5 -159.2C-253.7 -197.5 -193.1 -213.5 -140.7 -228.1C-88.3 -242.7 -44.2 -255.8 9.2 -271.7C62.5 -287.6 125 -306.2 175.8 -290.7" fill="#EB0028"></path></g></svg>