<svg id="visual" viewBox="0 0 900 600" width="900" height="600" xmlns="http://www.w3.org/2000/svg" xmlns:xlink="http://www.w3.org/1999/xlink" version="1.1"><g transform="translate(419.7037320571209 294.7398918639826)"><path d="M149.4 -250.3C192.9 -233.8 226.8 -192.1 262.8 -146.2C298.8 -100.3 336.9 -50.2 337.6 0.4C338.3 51 301.7 102 258.7 135.8C215.7 169.7 166.5 186.3 122.3 202C78.1 217.7 39.1 232.3 -8.8 247.6C-56.7 262.8 -113.3 278.6 -162.6 265.9C-211.8 253.1 -253.5 211.8 -269.2 162.7C-284.9 113.7 -274.4 56.8 -260.1 8.3C-245.9 -40.3 -227.7 -80.7 -206.7 -120.5C-185.7 -160.3 -161.9 -199.7 -126.9 -221.2C-92 -242.7 -46 -246.3 3.5 -252.4C53 -258.5 106 -266.9 149.4 -250.3" fill="#EB0028"></path></g></svg>